<svg width="24" height="24" viewBox="0 0 24 24" fill="none" xmlns="http://www.w3.org/2000/svg">
<path d="M12 20H21" stroke="#9A10F0" stroke-width="2" stroke-linecap="square" stroke-linejoin="round"/>
<path d="M16.5 3.5L17.2071 2.79289L16.5 2.08579L15.7929 2.79289L16.5 3.5ZM19.5 6.5L20.2071 7.20711L20.9142 6.5L20.2071 5.79289L19.5 6.5ZM7 19L7.24254 19.9701C7.41837 19.9262 7.57895 19.8353 7.70711 19.7071L7 19ZM3 20L2.02986 19.7575L1.62563 21.3744L3.24254 20.9701L3 20ZM4 16L3.29289 15.2929C3.16473 15.4211 3.07382 15.5816 3.02986 15.7575L4 16ZM15.7929 4.20711L18.7929 7.20711L20.2071 5.79289L17.2071 2.79289L15.7929 4.20711ZM18.7929 5.79289L6.29289 18.2929L7.70711 19.7071L20.2071 7.20711L18.7929 5.79289ZM6.75746 18.0299L2.75746 19.0299L3.24254 20.9701L7.24254 19.9701L6.75746 18.0299ZM3.97014 20.2425L4.97014 16.2425L3.02986 15.7575L2.02986 19.7575L3.97014 20.2425ZM4.70711 16.7071L17.2071 4.20711L15.7929 2.79289L3.29289 15.2929L4.70711 16.7071Z" fill="#9A10F0"/>
</svg>
