<svg width="25" height="26" viewBox="0 0 25 26" fill="none" xmlns="http://www.w3.org/2000/svg">
<path d="M2.02203 9.93204L2.19491 10.194C1.84915 10.1837 1.48712 10.1495 1.41797 9.99831C1.41797 9.99106 1.42 9.98381 1.42204 9.97656C1.61526 9.92479 1.78102 9.92168 2.02203 9.93204ZM3.85863 10.7294L3.94202 10.9883L3.74677 10.9965L3.79355 10.7315C3.81528 10.7315 3.837 10.7315 3.85863 10.7294ZM4.52371 12.6192C4.35083 12.7807 4.21761 12.8884 4.1149 13.1338C3.97253 13.0148 3.89829 12.7787 3.85253 12.5146C3.80168 12.2267 3.78541 11.9068 3.74677 11.6676L3.75897 11.5454L3.95931 11.5309L4.46981 12.5146L4.52371 12.6182V12.6192ZM4.26541 10.194C4.29077 10.0172 4.31687 9.84045 4.34371 9.66384L4.40981 9.6597C4.361 9.8378 4.31219 10.0159 4.26541 10.194ZM4.12609 7.78956L5.04134 8.04223C5.03984 8.05602 5.03849 8.06983 5.03727 8.08365C4.61117 8.40466 4.21761 8.54549 4.00609 9.12537L4.08643 7.83512L4.12609 7.7906V7.78956ZM4.98032 6.45375C4.92134 7.05435 5.00473 7.31944 5.10744 7.69222C5.27015 7.81027 5.33523 7.88172 5.28235 8.05672C5.00778 7.91796 4.71693 7.77299 4.29592 7.79577C4.28565 7.78378 4.27548 7.7717 4.26541 7.75953C4.38337 7.2863 4.6132 6.99532 4.79117 6.62047L4.98134 6.45271L4.98032 6.45375ZM6.29624 5.65433L6.3359 5.65123C6.2098 6.09443 6.15896 7.11648 5.93828 7.5224C5.41659 7.27077 5.42676 6.18038 6.01048 5.7496L6.29624 5.65433ZM5.81014 8.93691L6.24946 9.42257C6.07658 9.9631 5.75015 10.3701 5.61184 10.9965L5.35252 10.9758C5.13083 10.3452 5.68506 9.31798 5.77964 8.85821L6.18641 8.90584C6.23726 9.03528 6.28607 9.16472 6.3359 9.2952L5.81014 8.93691ZM7.01217 5.65019C6.96743 6.1752 7.08132 6.44754 7.11183 6.85346C6.85353 6.98807 6.59421 7.12062 6.3359 7.2542C6.38388 6.71076 6.51175 6.17774 6.71522 5.67297L7.01217 5.65019ZM7.31319 4.85285L7.37115 4.84871L7.2837 5.10448L7.11183 5.11587L7.24403 4.95743L7.31319 4.85285ZM7.37115 7.30183L6.59421 7.78853C6.61048 7.49444 6.97861 7.09784 7.28675 6.98807L7.35793 7.02742L7.37115 7.30183ZM7.88979 5.46069C7.842 5.732 7.79522 6.00227 7.74946 6.27357L7.60403 6.36677L7.52674 6.45271C7.38641 6.25183 7.35081 5.75892 7.38132 5.38407L7.88979 5.46069ZM8.4064 4.84974C8.4064 4.8601 8.40437 4.86838 8.40335 4.87666L8.20505 5.07031C8.07284 5.12208 8.05657 5.12001 7.88979 5.1138C7.91115 5.02578 7.93556 4.93776 7.95895 4.84974H8.4064ZM8.92504 3.78109L8.69318 4.31438L7.88979 4.25536L7.89284 4.21187C8.22335 4.05654 8.51318 3.87222 8.92402 3.78006L8.92504 3.78109ZM8.50606 5.16868L8.59148 5.1169L8.66572 5.38407L8.4064 5.33229L8.50606 5.16764V5.16868ZM9.18335 5.95878C8.87521 6.08097 8.44911 6.04679 8.202 6.18659C8.18424 6.07955 8.16628 5.97255 8.1481 5.86558L8.30877 5.65123C8.57013 5.75478 8.83148 5.8604 9.09182 5.96499L9.18335 5.95878ZM8.52132 6.43925L8.16945 6.45271C8.16132 6.41544 8.15522 6.37816 8.1481 6.33984C8.39521 6.23733 8.81013 6.22801 9.18335 6.18555L8.78979 6.40612L8.52132 6.43925ZM9.44165 6.43925C9.14572 6.51485 8.86199 6.78097 8.66776 6.98807C8.63013 6.74576 9.08674 6.31913 9.30538 6.18555C9.40199 6.27357 9.41216 6.26425 9.44165 6.43925ZM9.96029 3.24677L9.95622 3.28819L9.64504 3.47976L9.18335 3.51393L9.18741 3.47251L9.96029 3.24677ZM9.54131 4.04825L9.44165 3.89811C9.67555 3.69825 10.1911 3.80802 10.4779 3.83805L9.54131 4.04825ZM11.8579 3.26127C12.2901 3.29751 12.6857 3.40106 12.9867 3.59263L13.066 3.58745L13.0182 3.6558L12.6043 3.78006C12.3552 3.74485 12.106 3.70757 11.8579 3.67133L10.2186 3.4342L10.2227 3.40002C10.7578 3.2706 11.3091 3.22417 11.8579 3.2623V3.26127ZM13.5796 3.12044L13.4881 3.24677C13.2399 3.22869 13.0027 3.13568 12.8067 2.97961L13.5837 3.08005L13.5796 3.12044ZM14.9586 4.10831L15.1731 4.02547L15.3959 4.22015C15.3653 4.44279 15.1548 4.62504 14.9931 4.84146L14.8691 4.84974C14.5314 4.28021 14.1053 3.65787 13.3579 3.43834L13.3254 3.37103L13.6274 3.24677C14.1348 3.42695 14.5579 3.70032 15.0287 3.85772C15.0898 4.00787 15.0704 3.95713 14.9575 4.10831H14.9586ZM15.583 5.37475L15.524 5.31572L15.3959 5.32504L15.6094 5.11794L15.583 5.37475ZM15.8118 8.32389C16.1616 8.63247 16.2511 9.07981 16.1057 9.6597C15.9552 9.31591 15.8057 8.97108 15.6542 8.62729C15.705 8.55066 15.7528 8.47404 15.8026 8.39741C15.8057 8.37255 15.8077 8.3477 15.8118 8.32389ZM15.9135 5.9215L15.9094 5.9712L15.7253 6.18555L15.6542 6.04369C15.765 5.84176 15.6847 5.95049 15.8301 5.92978L15.9135 5.9215ZM16.1291 5.91839L16.9487 6.22801C16.9474 6.25571 16.945 6.28334 16.9416 6.31085C16.8724 6.35952 16.8033 6.40612 16.7341 6.45271L15.9135 6.14413L15.9206 6.06026L16.1291 5.91839ZM17.7257 6.98807L17.2711 6.68053L17.208 6.55627C17.4053 6.432 17.3769 6.43822 17.5853 6.47964C17.6311 6.64946 17.6789 6.81929 17.7257 6.98807ZM17.984 6.88659L17.8924 6.98807C17.7826 6.93009 17.7633 6.85656 17.7257 6.71988L17.9626 6.8255L17.984 6.88659ZM17.7908 6.12135L17.7257 6.12653C17.7969 6.05715 17.868 5.98777 17.9413 5.91943C17.8904 5.98673 17.8396 6.05404 17.7908 6.12135ZM19.0202 7.46545L18.8931 7.5224C18.6621 7.3906 18.4312 7.2584 18.2006 7.1258C18.1282 7.02583 18.056 6.92573 17.984 6.8255C18.343 6.55627 18.3562 6.86899 18.6948 7.03985L19.0202 7.46545ZM19.2785 7.70154L19.0202 7.60524L19.1758 7.5224L19.2785 7.70154ZM18.9633 8.13232C19.0568 8.32389 19.0568 8.27004 19.2785 8.24104L18.8809 8.59105L18.5016 7.85376L18.5067 7.8082C18.7863 7.74711 18.8758 7.84962 19.1494 7.89104L19.2541 8.06294L18.9633 8.13232ZM19.0202 8.61176L19.5379 8.32389C19.4341 8.56205 19.2989 8.68424 19.1392 8.85821L19.0202 8.61176ZM20.0555 9.63174C19.9151 9.75496 19.8236 9.79431 19.5582 9.81709L19.7718 9.84091L19.7677 9.87923L19.0385 10.194L19.0202 9.24135L19.5226 8.63558L19.6141 8.59105L20.0555 9.63174ZM19.7962 8.16959C21.226 7.76367 20.9494 8.53617 20.3118 9.12537C20.1389 8.80747 19.967 8.48853 19.7962 8.16959ZM21.0907 8.32389C20.564 10.8443 20.4623 10.982 18.5992 12.0652C18.568 12.0143 18.5354 11.9642 18.5016 11.915L18.5677 11.6334C19.7829 11.2813 20.4734 10.6331 20.4012 9.16576L21.0104 8.36841L21.0907 8.32389ZM21.1538 8.32389C21.1334 8.2369 21.1131 8.14992 21.0907 8.06294L21.2839 8.05672L21.1538 8.32389ZM17.984 10.7749L18.0023 10.4964L18.0185 10.2582L18.1975 10.1971C18.2067 10.1971 18.2148 10.1951 18.2229 10.194C18.2738 10.5099 18.223 10.7428 18.1213 10.9965C18.0338 10.9396 18.0165 10.9158 17.984 10.7749ZM16.9487 13.1131L16.9528 13.0665L17.2924 12.2392L17.3636 12.0652L17.9616 12.1066C17.9707 12.1522 17.9769 12.1967 17.9799 12.2392C18.0063 12.554 17.8996 12.8056 17.7897 13.1338L16.9487 13.1131ZM17.208 14.1859L17.2152 13.7717L17.2253 13.6682L17.6626 13.7013L17.7257 13.6961C17.625 13.8649 17.5253 14.0337 17.4267 14.2035L17.208 14.1859ZM16.9518 12.4566L16.9782 12.4432L17.1847 12.3344L17.208 12.3324L17.1775 12.4432L17.0565 12.8667L16.9487 12.4898L16.9518 12.4566ZM16.548 13.7872L16.4311 13.6682C16.545 13.7489 16.4708 13.6702 16.548 13.7872ZM15.9135 13.4693C16.0589 13.3762 16.2165 13.4051 16.4321 13.4072L16.368 13.6216C16.1901 13.6941 16.1647 13.6671 15.9643 13.6454L15.9135 13.4693ZM16.2308 14.4697L16.4311 14.9522C16.2765 15.0589 16.1209 15.1645 15.9664 15.2722C15.828 15.0785 15.9786 14.537 16.2308 14.4697ZM15.7192 12.7921L15.6542 12.7973L15.7396 12.5995L15.7192 12.7921ZM16.4647 12.8667L16.4311 12.8449L16.545 12.6006L16.5826 12.5995L16.6904 12.8563L16.4647 12.8667ZM18.2575 9.39254L18.2433 9.30245C18.3114 9.21753 18.3552 9.16472 18.4721 9.12641L18.5026 9.28381C18.4518 9.31798 18.4009 9.35111 18.3511 9.38632L18.2575 9.39254ZM18.2433 10.0449C18.1965 10.1081 18.1131 10.1433 18.0541 10.194L17.984 8.85821L18.2433 10.0449ZM17.7684 11.8363C17.9392 11.739 17.9636 11.8291 17.984 12.0642H17.4663L17.4755 11.9813L17.7684 11.8363ZM17.5141 11.098L17.6311 10.9965L17.7257 11.1684L17.6819 11.2637L17.4663 11.2378L17.5141 11.098ZM17.4663 11.8063L17.1969 12.0652L17.0209 12.0352L16.9497 12.0424C16.9904 11.9606 17.0331 11.8788 17.0748 11.798L17.4663 11.8063ZM16.4901 11.6541C16.3823 11.5775 16.4596 11.5878 16.4392 11.5298L16.4901 11.6541ZM17.3057 10.4612L16.4311 9.99934C16.4718 9.38839 16.545 8.68632 16.486 8.05672C17.1602 8.30525 17.7653 9.42256 17.3057 10.4612ZM16.6904 10.4612C16.905 10.5772 16.8938 10.6828 17.1918 10.776C17.2436 10.9738 17.1643 11.0525 17.0402 11.2627L16.723 11.2502C16.6579 10.8982 16.7291 10.6962 16.6904 10.4612ZM16.7494 12.1895C16.6406 12.1128 16.7189 12.1232 16.6986 12.0652L16.7494 12.1895ZM18.5016 9.61724L18.5046 9.56754L18.7385 9.39254C18.7792 9.66591 18.764 10.1215 18.7029 10.4612C18.5646 10.3514 18.5392 9.88751 18.5016 9.61724ZM18.5016 10.4612C18.5545 10.3721 18.6074 10.2831 18.6582 10.194L18.5667 10.457L18.5016 10.4612ZM20.0118 9.6628L20.0555 9.6597C20.0677 10.6838 19.4473 10.8702 18.6318 11.2544L18.5016 11.2637L19.0101 10.1909L20.0118 9.6628ZM18.4762 7.66219C18.4843 7.68912 18.4935 7.715 18.5006 7.74193L18.4365 7.78956L18.2423 7.5224L18.4762 7.66219ZM18.2423 8.10746L18.2494 8.06087C18.2684 8.05932 18.2873 8.05794 18.3063 8.05672L18.5016 8.32389C18.3511 8.2514 18.3267 8.2338 18.2423 8.10746ZM18.5006 8.7909L18.1518 9.12537L17.4023 8.01737L16.4301 7.1579L16.6436 6.98807C17.1145 7.19518 17.9382 7.58971 18.104 8.08261C18.1579 8.24312 17.9718 8.37566 18.0979 8.50924C18.2484 8.66871 18.3989 8.55481 18.5016 8.78987L18.5006 8.7909ZM16.3162 10.4612L16.3955 10.4933L16.4301 11.2637L16.3091 11.2347C16.1952 11.1488 16.1158 10.7511 16.2196 10.5782L16.3162 10.4612ZM15.7426 11.8011L15.826 11.798L15.9125 12.0072L15.7803 12.059L15.6531 12.0652C15.6836 11.9772 15.7142 11.8892 15.7426 11.8011ZM15.5067 16.0737L15.3948 15.6833C15.5545 15.6367 15.7131 15.5901 15.8728 15.5414L15.9135 15.5393C15.9114 15.5514 15.9097 15.5634 15.9084 15.5756L15.5067 16.0737ZM15.1355 15.005C15.1833 14.8476 15.2169 14.8238 15.3033 14.7368L15.3745 14.7658L15.3948 14.8342L15.2352 14.9936L15.1355 15.004V15.005ZM15.2575 15.2722L15.1355 15.1355L15.3948 15.005L15.3277 15.267L15.2575 15.2722ZM14.985 16.4837C14.9484 16.4547 14.9138 16.4247 14.8772 16.3936L14.9565 16.3885L15.3562 16.0737L15.3948 16.3947L15.0887 16.608L14.985 16.4837ZM15.0053 19.5447C14.382 19.5716 14.0087 19.4101 13.5003 19.3645L12.9176 18.1913L12.8057 18.0732C13.784 17.9552 14.3992 17.4747 15.1243 17.1423C15.3806 17.3908 15.9613 18.6562 15.4497 19.2164C15.3277 19.408 15.1914 19.4277 15.0053 19.5447ZM12.3287 18.2265L12.5626 18.211C12.9155 18.4522 13.1555 18.884 13.3243 19.2806L12.2881 18.9752C12.3654 18.708 12.3979 18.4367 12.3287 18.2265ZM11.5843 17.2179L12.7518 16.8751L14.5864 17.0574L14.6189 17.1516C14.0728 17.4022 13.4515 17.6135 12.825 17.9365C12.1467 17.9914 11.983 17.7336 11.5132 17.5638L11.5843 17.2179ZM11.5121 18.4771L11.5355 18.2451L11.982 18.211C12.0186 18.4129 12.0572 18.5258 12.0023 18.7453L11.5121 18.476V18.4771ZM10.9935 18.8954L11.1674 18.7981C11.381 18.6542 11.5406 18.8457 11.7704 18.9213L11.6789 19.0124L10.9935 18.8954ZM11.4969 18.4781C11.4405 18.4526 11.3842 18.4267 11.3281 18.4005L11.2528 18.211L11.5121 18.2275L11.4969 18.4781ZM10.7352 18.4781L10.9945 18.7049C10.9945 18.8447 10.9823 18.8292 10.9508 19.0124L10.7352 18.4781ZM10.064 17.4768C10.3071 17.4012 10.6305 17.4178 10.9945 17.4095L10.6559 17.6766L9.95927 17.6073L10.064 17.4768ZM9.44165 4.0845C9.92266 3.61645 11.1288 3.75624 11.4308 4.05343L11.5121 4.04618C11.1105 4.42829 10.4881 4.47178 10.1057 4.84974C9.80571 4.64678 9.55758 4.51631 9.44165 4.0845ZM12.0857 4.84974L12.2891 5.0848C12.1081 5.09516 11.9179 5.10655 11.7277 5.12312C11.2996 5.1604 10.8766 5.22563 10.5806 5.38199L10.542 5.38407C10.5206 5.34992 10.4992 5.31575 10.4779 5.28155C10.9637 5.02207 11.5 4.87565 12.0481 4.85285L12.0857 4.84974ZM13.0945 3.51393C13.4291 3.85565 13.9284 4.05861 14.1013 4.58258C13.3996 4.25018 12.3196 4.25536 11.7725 3.72621C12.2545 3.8308 12.6654 3.79145 13.0945 3.51393ZM13.3254 5.38407L14.2853 5.51868L14.3606 5.51247L13.5908 6.18555C13.4687 5.93807 13.4403 5.60256 13.3254 5.38407ZM14.5589 6.52727L14.3606 6.49621L14.6189 6.45271L14.5579 6.52727H14.5589ZM14.3606 5.88836L14.5975 5.65123L14.6189 5.91839L14.447 5.88008L14.3606 5.88836ZM14.8304 14.7316L14.7165 14.7368L14.6189 14.6436L14.6942 14.5432L14.8772 14.4707L14.8304 14.7316ZM14.624 15.2204C14.6545 15.1831 14.687 15.1458 14.7196 15.1086L14.7277 15.005L14.8782 15.2484L14.6189 15.2722L14.624 15.2204ZM14.5213 16.0737L14.3606 15.8769L14.8782 15.8065L14.6311 16.0654L14.5213 16.0737ZM14.6189 16.8751L14.1013 16.812L14.4674 16.608L14.6189 16.8751ZM14.2559 16.1213L14.3606 16.2228L13.9853 16.3201L13.5837 16.3408L14.143 16.0737L14.2559 16.1213ZM12.8077 4.58258C13.1098 4.59086 13.4291 4.66853 13.5837 4.84974C13.3752 4.82903 12.9999 4.8632 12.9054 4.69959L12.8077 4.58258ZM13.0701 5.65123C13.2176 5.78274 13.2694 5.93807 13.243 6.18555C13.0152 6.10582 13.0742 5.85212 13.0701 5.65123ZM13.3243 7.33601L13.3335 7.29044C13.8491 7.17654 13.9599 7.35879 13.725 7.5224C13.5216 7.4934 13.4291 7.41574 13.3243 7.33601ZM13.9884 14.2025L14.1013 14.2315C14.0998 14.2439 14.0984 14.2563 14.0972 14.2688L13.843 14.4697L13.9487 14.2056L13.9884 14.2025ZM13.846 7.68497L14.0392 7.5224L14.1013 7.78956L13.843 7.73157L13.845 7.68497H13.846ZM14.6189 14.83L13.9935 14.9967L13.843 15.004C13.843 14.9957 13.845 14.9864 13.847 14.9781C14.0809 14.9305 14.2314 14.8518 14.3698 14.7368L14.5894 14.7782L14.6189 14.83ZM14.1725 14.2025L14.1013 14.0544L14.2792 13.9353L14.3606 13.9799L14.2589 14.1952L14.1725 14.2025ZM12.5484 16.0509L12.8565 15.8065L13.8104 15.8893L13.843 15.9618L13.1982 16.3408C12.9593 16.3004 12.7528 16.1927 12.6287 16.0447L12.5484 16.0509ZM12.0694 16.0737L12.5474 16.3408L11.7715 16.201C11.8711 16.1596 11.9698 16.1161 12.0694 16.0737ZM12.0308 16.6194C12.0297 16.6408 12.0287 16.6622 12.0277 16.6836L11.8803 16.7664L11.7715 16.7809L11.7755 16.7167C11.8884 16.5645 11.8691 16.6152 12.0298 16.6194H12.0308ZM10.8105 5.74339C10.7859 5.71659 10.7612 5.69001 10.7362 5.66365C10.9935 5.52075 11.3993 5.45241 11.7979 5.42031C12.1264 5.39235 12.4498 5.38924 12.6816 5.38407L12.8077 6.18555C12.4691 6.14827 12.1467 6.10271 11.7979 6.08718C11.4965 6.07197 11.1944 6.08305 10.8949 6.12032C10.8673 5.99454 10.8392 5.8689 10.8105 5.74339ZM11.1908 16.4661L11.2538 16.58L11.1928 16.8192L10.4779 16.8751C10.5542 16.637 10.6681 16.522 10.7911 16.3408L11.1908 16.4661ZM10.3081 15.5393C9.98266 15.5207 9.53724 15.2784 9.44165 15.005L10.4779 15.2732L10.3081 15.5393ZM10.6721 15.5248L10.4779 15.5393L10.484 15.4751L10.6996 15.2722C10.6894 15.356 10.6813 15.4399 10.6721 15.5248ZM9.96029 5.75271L10.2755 5.65123L10.4779 5.91011L10.2644 5.91839L9.96029 5.75271ZM9.95622 17.2262C9.93893 17.2842 9.92368 17.3432 9.90741 17.4022C9.88224 17.4036 9.85713 17.406 9.83215 17.4095C9.78856 17.3203 9.74483 17.2313 9.70097 17.1423L9.96029 17.1692L9.95622 17.2262ZM10.0996 16.0737L10.7037 16.1979L10.7362 16.2808L10.2674 16.8751L9.70097 16.7902L10.0996 16.0737ZM14.6189 7.69844L14.7359 7.52343L14.7786 7.5224L15.104 7.60524L15.1365 7.65287L14.7735 7.78956C14.722 7.75908 14.6705 7.7287 14.6189 7.69844ZM15.3196 6.83482L15.1365 6.72091C15.3226 6.79029 15.2159 6.71159 15.3196 6.83482ZM15.2606 8.05672L15.1365 7.94903L15.3959 7.78956L15.2606 8.05672ZM15.1365 9.92686L15.5392 10.0283C15.6481 10.0718 15.645 10.0832 15.6542 10.194C15.4813 10.1267 15.1925 10.0801 15.1365 9.92686ZM15.1772 9.19889L15.2321 9.12641L15.3959 9.39254L15.1365 9.34076L15.1772 9.19889ZM9.93283 17.9914L9.96029 18.0618L9.61148 18.1975L9.44165 18.211L9.44572 18.1747L9.5647 17.9852C9.72944 17.9076 9.73351 17.9583 9.93283 17.9914ZM9.18335 4.58154C9.40911 4.75344 9.46809 4.96468 9.4325 5.65123C9.28402 5.45759 9.19351 5.04649 9.18335 4.58258V4.58154ZM9.33182 4.04825L9.31351 4.2419L9.18436 4.25122L9.33284 4.04825H9.33182ZM9.18335 4.31542C9.17623 4.37962 9.17114 4.44382 9.16301 4.50802L8.92402 4.4635L9.12131 4.31956L9.18233 4.31542H9.18335ZM9.18335 19.815L9.31148 18.4543L10.2186 18.211L9.2647 19.7653L9.18335 19.815ZM9.24741 16.1575L9.38673 16.0737C9.51385 16.2269 9.39995 16.4475 9.27996 16.608C9.18029 16.5127 9.16911 16.4527 9.19555 16.2362L9.24741 16.1575ZM8.4064 16.0271L8.70437 15.5393L9.18233 15.8251C9.01962 16.0861 8.85386 16.347 8.68911 16.608C8.54064 16.4734 8.44911 16.2756 8.4064 16.0281V16.0271ZM8.4064 18.1198L8.88436 17.6766L9.10911 17.6973L9.18335 17.8216C9.16301 17.9521 9.1447 18.0815 9.1264 18.211L8.4064 18.1198ZM7.63047 17.7574L8.19996 17.4095L8.63318 17.4788L8.66572 17.5399L8.20911 17.9438C7.98132 17.92 7.82979 17.8578 7.71081 17.7522L7.62946 17.7574H7.63047ZM7.5542 17.2407L7.76268 17.1423L7.85217 17.162L7.88878 17.2055L7.28573 17.4095L7.11285 17.3473L7.5542 17.2407ZM6.85353 16.9901L7.00607 16.6142C7.28878 16.5769 7.3559 16.7188 7.56844 16.8089L7.62946 16.9041L7.31319 17.1247L7.0559 17.1423L6.85353 16.9901ZM6.33489 18.0867L6.71217 17.4095C6.96234 17.4095 6.99285 17.4302 7.09556 17.5648C7.14132 17.6435 7.10166 17.601 7.002 17.6186L6.97861 17.8516L7.37115 17.9138C7.29387 18.1095 7.28166 18.0836 7.16573 18.2079C6.77929 18.2286 6.60438 18.154 6.33489 18.0867ZM5.89964 17.1423L6.5576 17.3442L6.59421 17.424L6.17218 17.9438L5.55896 17.7388L5.89964 17.1423ZM3.3644 16.4195L3.37253 16.3398L3.73965 16.6277L3.77117 16.7043C3.00745 17.3049 4.17592 19.262 5.50506 17.9935L6.07658 18.2275C5.85692 18.6262 5.47964 18.7836 5.08201 19.0093C4.13117 19.0901 2.80101 17.5089 3.3644 16.4195ZM4.25117 16.6929L4.26541 16.8741C4.19422 16.8192 4.12304 16.7664 4.05388 16.7115L4.00609 16.607L4.25117 16.6929ZM5.55896 17.8278L5.08608 18.2006C4.15456 18.3 3.77728 17.6435 3.74677 16.8368L3.9288 16.6132L4.00812 16.607C4.47693 16.9828 4.89185 17.5565 5.52845 17.746L5.55896 17.8278ZM4.65693 13.9343C4.57253 13.8722 4.56744 13.8411 4.52473 13.7355L4.70168 13.05L4.90812 12.8656L5.04134 13.0645L4.65693 13.9343ZM4.52473 14.1652L4.93252 13.1825L5.01591 13.1328C5.20405 13.4704 5.47659 13.6236 5.55896 14.0824L4.94473 14.7358C4.75373 14.5909 4.6076 14.3932 4.52371 14.1662L4.52473 14.1652ZM5.30066 14.9833L5.8193 14.4686L6.07658 15.004C5.81797 14.996 5.55933 14.9891 5.30066 14.9833ZM6.59421 9.58307C6.34912 10.1164 6.02269 10.4788 5.82743 10.9955C5.74201 10.5264 6.25658 9.8523 6.42235 9.4381L6.50167 9.3915L6.59421 9.58307ZM6.59421 8.11264C6.97963 7.99149 7.23793 7.76989 7.51352 7.52136L7.63047 7.87758L7.30302 8.32285L6.59421 8.11264ZM7.88878 8.1406L7.74844 8.32285L7.63047 8.30214L7.63251 8.27315L7.86844 8.05569L7.88878 8.1406ZM7.68539 6.98911L7.72607 6.98704L7.88878 7.33601L7.82776 7.52136C7.59081 7.39503 7.59997 7.24488 7.68539 6.98911ZM7.63657 14.7358L7.87556 14.9108L7.63047 14.801C7.63185 14.7792 7.63388 14.7575 7.63657 14.7358ZM7.63251 15.004L7.88878 15.1168C7.88725 15.1272 7.88589 15.1375 7.88471 15.1479L7.33556 15.5383C7.17793 15.4658 7.15861 15.3219 7.11183 15.1655L7.11692 15.1324L7.63251 15.004ZM6.86675 14.4686L7.11285 14.5701L6.98065 14.6478L6.85353 14.6623L6.86675 14.4686ZM6.85353 9.12537C7.16471 9.21443 7.06607 9.15437 7.07929 9.3915C6.93692 9.30659 6.92675 9.26724 6.85353 9.12537ZM6.85353 13.898L6.87488 13.6671C6.9959 13.7531 7.0376 13.8038 7.11285 13.9343C7.02643 13.922 6.93999 13.9099 6.85353 13.898ZM7.37217 10.5606C7.27454 10.688 7.27861 10.6538 7.11285 10.7273L7.22573 10.4601L7.37217 10.5606ZM7.37217 9.48573L7.20946 9.65866C7.04675 9.56547 7.12302 9.60274 7.19624 9.42981L7.29285 9.3915L7.37217 9.48573ZM7.35081 9.03114L7.11285 8.85717C7.2959 8.92863 7.25319 8.88513 7.35081 9.03114ZM6.85353 13.9343L7.11285 14.1445C6.98065 14.1414 6.90946 14.1124 6.85353 13.9343ZM7.63047 13.9239L7.52471 13.9343L7.4342 13.7645L7.37115 13.6816L7.51149 13.6671C7.55115 13.7531 7.5898 13.839 7.63047 13.9239ZM7.4881 8.97626L7.37115 8.85821C7.48505 8.93898 7.4098 8.86028 7.48708 8.97729L7.4881 8.97626ZM7.50336 13.3772L7.37115 13.0976L7.42708 12.8677L7.45963 12.8656L7.63047 13.4C7.58811 13.3923 7.54574 13.3847 7.50336 13.3772ZM6.82505 16.4868L6.85353 16.522L6.76099 16.8751C6.65208 16.8291 6.55616 16.7561 6.48194 16.6628C6.40771 16.5695 6.35752 16.4589 6.3359 16.3408L6.82505 16.4879V16.4868ZM6.07658 16.8751L6.3359 17.1092C6.17014 17.0346 6.15997 17.0377 6.07658 16.8751ZM6.52404 14.5059L6.55455 14.7368L6.3359 14.4697L6.52404 14.5059ZM6.26777 15.7558L6.07658 15.2722C6.30336 15.3602 6.48031 15.6242 6.59523 15.8065L6.26777 15.7558ZM6.47116 10.9986L6.53523 10.9965L6.34607 11.2637C6.31557 11.1974 6.35319 11.1343 6.45794 11.0566L6.47116 10.9986ZM6.3359 13.2954L6.28404 13.401L6.13557 13.284C6.11588 13.2415 6.09622 13.1991 6.07658 13.1566L6.27997 13.1338L6.3359 13.2954ZM4.52371 15.5393C5.04235 15.8831 5.92404 16.2021 6.07658 16.8751C5.46167 16.5625 4.92921 16.1044 4.52371 15.5393ZM5.86913 15.2805L6.07658 15.5393L5.55896 15.2722L5.86913 15.2805ZM7.76471 16.0737L7.37115 15.6698L8.05962 15.005L8.1481 15.7371L7.76471 16.0737ZM8.1481 16.52L8.21623 16.346L8.30776 16.3408L8.4064 16.608L8.1481 16.52ZM8.49691 15.5393L8.4064 15.2722L8.59454 15.3074L8.49691 15.5393ZM8.1481 6.54073L8.15013 6.51692C8.23555 6.49621 8.32098 6.4755 8.4064 6.45271L8.22742 6.71988L8.1481 6.54073ZM5.5376 12.0652L5.30066 11.5309C5.60472 11.5982 5.55489 11.8187 5.5376 12.0652ZM4.90405 12.3324C4.68236 12.176 4.541 11.8643 4.52371 11.5309C4.97829 11.6396 4.95286 11.8218 5.04235 12.2443L4.90405 12.3324ZM4.63659 10.9375C4.30609 10.6196 4.7871 9.34801 4.99862 9.05496C5.11049 8.91102 5.25083 8.91413 5.43591 8.85821L5.55896 8.89031C5.24778 9.45156 5.03829 10.2158 4.96405 10.9965L4.63659 10.9375ZM4.15355 15.2722L4.31117 15.5424L4.16982 15.879L4.08846 15.967C4.20439 15.9836 4.23083 15.8821 4.40371 15.7382C4.7393 16.2922 5.25184 16.8223 5.81726 17.1237L5.50913 17.6766L4.57354 17.0636C4.46676 16.8617 4.61422 16.6297 4.44236 16.5065C4.28676 16.3947 4.08643 16.5562 3.92778 16.5075L3.48846 16.0975C3.61762 15.8034 3.74168 15.5155 3.99694 15.3654L4.15355 15.2722ZM3.25864 12.3251C3.29393 12.0586 3.34453 11.7944 3.41016 11.534L3.44474 11.5309L3.57999 12.3251L3.65118 12.7393C3.85456 13.3171 4.05999 13.8939 4.26541 14.4697C3.77321 14.1963 3.46914 13.5636 3.51287 12.7124C3.39491 12.9868 3.49253 13.4186 3.53118 13.6609C3.22914 13.4 3.19152 12.8812 3.25864 12.3251ZM2.80915 12.5995C2.76211 12.4984 2.73253 12.3898 2.72169 12.2785C2.7072 12.1286 2.70857 11.9776 2.72576 11.8281L2.7705 11.7328L2.97084 11.5309L2.85796 12.2775L2.80915 12.5985V12.5995ZM20.8314 15.2711L20.3138 15.0682L20.8162 15.005L20.8314 15.2711ZM7.13319 19.6203L7.26844 19.5478L7.11183 19.8139L7.13217 19.6213L7.13319 19.6203ZM3.22914 10.4622L3.00847 10.4415C2.73389 10.3493 2.47661 10.0232 2.45322 9.66073C2.87321 9.69905 3.01559 9.90201 3.22304 10.1495C3.22508 10.253 3.22813 10.3576 3.22914 10.4622ZM3.19864 10.4405C3.22914 9.86369 2.79694 9.50333 2.23559 9.51887C2.33118 8.7091 3.0227 8.29489 3.63897 8.02255L3.75795 8.01323C3.65524 9.0301 3.73355 9.90615 3.36033 10.7863C3.08474 11.4346 2.10746 11.4221 2.16034 12.4224L2.16746 12.5053C2.30678 13.8349 3.72643 14.1052 3.9227 15.2742C1.81763 16.3646 4.38337 20.9468 6.04811 18.2555C6.34709 18.299 6.61251 18.4367 6.9837 18.3042C7.15658 18.2068 7.19014 18.1281 7.25726 17.9252L7.85217 18.2389L7.88267 18.3155C7.33759 18.7463 6.95319 19.3376 6.36743 19.7414L6.42336 19.5778L6.27082 19.5499L6.18641 19.5965L6.11014 19.9589C6.44472 20.3068 7.45861 19.0487 7.75556 18.8022C7.58776 19.3997 7.17285 19.7073 6.942 20.254L7.01319 20.3286C7.45047 20.0096 7.9864 19.1067 8.06776 18.4201L8.72267 18.5309C7.902 19.6607 5.79387 22.1459 4.68541 22.8097C4.85422 22.2702 5.12269 21.858 5.25896 21.4148L5.17964 21.421C5.156 21.3961 5.13227 21.3713 5.10845 21.3465C4.83897 21.887 4.39456 22.2671 4.31524 22.9961C4.36263 23.0683 4.4226 23.1311 4.49219 23.1814C5.81015 22.9577 8.01081 19.5851 9.06233 18.6635C8.77759 21.5733 7.24607 22.0268 5.91794 23.7893C7.12505 23.1762 7.85725 21.6126 8.88945 20.7449C8.77555 21.9595 8.49182 24.6757 7.77793 25.1592L7.8959 25.1499C8.69725 24.6425 8.74402 22.556 9.01148 21.4894L9.12538 20.3679L10.2694 18.7318L10.3528 18.6852C10.481 19.0942 11.0606 19.5385 11.6881 19.4194L12.1386 19.2268L13.2694 19.6576C13.4179 21.3144 13.3609 22.2432 12.3308 23.5045C13.3833 22.9567 13.7698 20.8463 13.4189 19.7259C15.8667 20.0148 15.7681 19.174 15.3043 17.3587L15.7345 17.366C15.6552 17.2448 15.4406 17.3349 15.2769 17.2417C15.2026 17.193 15.2169 17.2024 15.1711 17.1299C15.7528 16.462 17.1541 17.1257 16.8592 18.2348C17.2619 17.3152 16.3721 16.4972 15.5148 16.8265C15.8809 16.3843 16.3243 16.0208 16.5562 15.4358L16.6396 15.3902L18.6531 17.5441L18.7721 17.5348L18.8636 17.4084C18.223 16.6359 17.5833 15.8624 16.9447 15.0889L17.1501 14.9936C17.1955 14.9459 17.2512 14.9097 17.3129 14.888C17.3745 14.8662 17.4403 14.8595 17.505 14.8683C17.471 14.8512 17.4372 14.8339 17.4033 14.8165C18.4314 14.9211 19.7453 15.7941 20.8182 15.5124C20.9168 15.3374 20.9219 15.2432 20.8619 15.0723C22.005 15.1013 24.0612 14.712 24.7161 14.1466C22.9568 14.5225 20.9758 14.6498 19.3609 14.4303L17.9301 14.2594L17.8497 14.2657L18.2352 13.5615C19.4148 13.5387 22.5083 13.5087 23.1338 12.7548L22.9955 12.5664L22.4565 12.4877C22.4187 12.549 22.3977 12.6194 22.3955 12.6917L22.8226 12.7383C21.8951 12.9764 19.3121 13.4787 18.4691 13.1856C18.3806 13.0759 18.4457 12.6948 18.4497 12.4204C18.4512 12.3713 18.4492 12.3221 18.4436 12.2733C19.6558 11.9047 20.5558 11.0742 20.925 9.82124C21.1355 9.10363 20.9962 8.16131 21.4517 7.71397C21.7426 7.73986 21.8016 7.86515 22.0151 7.95007C21.9023 7.7906 21.7406 7.70154 21.5382 7.62906L21.1589 7.89518C20.8121 8.03187 20.449 7.67462 19.8602 7.95317C19.3823 7.5369 19.1128 6.87935 18.467 6.62772L18.4009 6.51381L19.184 5.73821C18.9277 5.9567 18.6663 6.21455 18.405 6.47342L17.8802 6.23422L17.8497 6.15656C18.4477 5.72579 18.9785 5.56632 19.6589 5.703C19.6904 5.76721 19.724 5.83037 19.7565 5.89457C19.725 5.94946 19.6965 5.96499 19.669 5.98052L19.4402 5.91839C19.5389 5.97741 19.6416 5.99605 19.7443 6.01469L19.8307 5.92875L19.844 5.80863C19.6955 5.67401 19.6497 5.57667 19.3579 5.56632L19.4972 5.35714C19.1636 5.59117 18.4863 5.6533 18.1548 5.85626L18.9216 5.24116L19.0131 5.11587L17.5945 5.97741C17.2914 5.9567 16.9691 5.81173 16.8053 5.6388C16.7792 5.64085 16.7531 5.64292 16.727 5.64502L18.4111 4.48524L18.3836 4.36823C17.745 4.74723 17.1053 5.12622 16.4677 5.50626L15.8555 5.353L15.9125 4.79279L20.3026 1.2824L20.3809 1.27619L20.3189 1.1219C20.1562 1.0432 19.488 1.59513 19.2358 1.75977C18.2636 2.39454 17.4043 3.18464 16.4484 3.75831C16.843 3.2478 17.565 2.73937 17.685 1.99587L17.4918 1.97102L17.1908 2.23197L17.5182 2.08699C17.3067 2.74247 16.3487 3.9126 15.8077 4.28332L15.7447 4.12902C16.0965 3.52636 16.4433 2.71555 16.2806 1.94202L15.9857 1.76599L15.6694 1.7898C15.8718 1.87161 16.0091 1.89128 16.1575 1.99173C16.2521 2.74144 15.8901 3.24884 15.6948 3.85565L15.6114 3.90121C15.4813 3.6558 15.4894 3.53775 15.222 3.49322L15.1986 3.33582L15.3816 3.08316L15.5077 2.9941C15.5504 3.07694 15.5525 3.04691 15.5657 3.18878C15.6032 3.12781 15.6239 3.05772 15.6257 2.98582L15.4762 2.91748L15.0806 3.34411C14.7501 3.1194 14.386 2.8833 13.9213 2.79529C14.1847 2.23922 14.985 1.34557 14.5721 0.640384C14.0677 -0.217021 12.346 0.770858 11.7155 1.45119C11.6424 1.52705 11.5788 1.61193 11.5264 1.70385C11.5888 1.65332 11.6518 1.60361 11.7155 1.55474C12.3379 1.08255 13.9945 -0.0482321 14.3535 0.85577C14.7298 1.36006 14.0087 2.33034 13.8125 2.72487C13.1413 2.65549 12.4396 2.59025 11.7176 2.60475C10.9576 2.6115 10.203 2.73508 9.47928 2.97132C9.11318 3.09455 7.55115 4.04722 7.49115 4.03479L6.77929 3.33272L5.29049 2.57161L5.28235 2.65135L5.19489 2.7373L7.10268 4.38169L6.81183 4.5629C6.02675 3.95713 5.48574 3.58952 4.31727 3.2799L4.11999 3.29544C4.80236 3.77384 5.48981 4.21187 6.17624 4.65092L6.31353 4.83939C5.82337 5.04959 5.61591 5.48658 5.20201 5.75789C4.55524 5.44309 3.95626 5.15729 3.1722 4.91601L3.11728 5.07963L4.58575 6.04265L4.66507 6.03644L4.41185 6.21455C4.2949 6.61529 4.06609 7.08024 3.8749 7.64563C3.1427 8.25244 2.1939 8.21619 2.04644 9.45259C1.81254 9.51783 1.6478 9.53854 1.43424 9.69801L1.41797 9.85851C1.55221 10.049 2.74101 10.5616 3.02474 10.6113L3.19965 10.4394L3.19864 10.4405ZM11.8833 1.89128L11.9921 1.91199L11.8467 1.89335C11.8213 1.89335 11.7959 1.89542 11.7715 1.89646C11.8864 1.679 12.224 1.62516 12.5484 1.64897L12.526 1.80637L11.8915 1.83847L11.8833 1.89128ZM12.3369 2.17812L12.642 2.07664C12.7742 1.85297 12.8494 1.61584 12.7823 1.39941C12.4681 1.33625 12.2871 1.41391 11.9932 1.54024C11.9397 1.62879 11.8865 1.7175 11.8335 1.80637L11.7725 1.90992C11.7913 1.93215 11.8117 1.95291 11.8335 1.97205C11.9332 2.05489 12.0532 2.08389 12.2738 2.06525C12.3349 2.17087 12.2637 2.12427 12.1549 2.15327L12.3379 2.17812H12.3369ZM19.8653 4.58361L19.5379 4.64575L19.7392 4.63125L19.9701 4.73273L19.6202 5.3851C19.8002 5.16868 19.9792 5.01542 20.0555 4.68717L19.8653 4.58361ZM17.984 15.006C17.9026 14.858 17.8141 14.7606 17.7257 14.7378C17.804 14.8134 17.8945 14.9025 17.984 15.006ZM16.9487 18.212L16.6904 18.3652L16.8887 18.3466L16.9497 18.212H16.9487ZM17.984 15.006C18.2474 15.3084 18.4446 15.8883 18.3877 16.3419C18.6867 15.6843 18.346 15.2742 17.984 15.006Z" fill="#ADB5BD"/>
</svg>
